<svg xmlns="http://www.w3.org/2000/svg" width="482.892" height="372.531" viewBox="0 0 482.892 372.531">
  <g id="Group_1720" data-name="Group 1720" transform="translate(-97.597 -197.64)">
    <g id="Group_1687" data-name="Group 1687" transform="translate(97.597 567.022)">
      <g id="Group_1686" data-name="Group 1686">
        <path id="Path_6562" data-name="Path 6562" d="M578.914,874.917H99.225a1.611,1.611,0,0,0-1.625,1.47,1.575,1.575,0,0,0,1.571,1.679H578.914a1.575,1.575,0,0,0,1.575-1.575h0A1.575,1.575,0,0,0,578.914,874.917Z" transform="translate(-97.597 -874.917)" fill="#09587e"/>
      </g>
    </g>
    <g id="Group_1693" data-name="Group 1693" transform="translate(237.506 200.119)">
      <circle id="Ellipse_174" data-name="Ellipse 174" cx="25.855" cy="25.855" r="25.855" transform="matrix(1, -0.005, 0.005, 1, 2.29, 15.142)" fill="#92b5f9"/>
      <path id="Path_6563" data-name="Path 6563" d="M394.69,279.37a25.182,25.182,0,1,1,13.491-32.958A25.21,25.21,0,0,1,394.69,279.37Z" transform="translate(-356.694 -215.268)" fill="#92b5f9"/>
      <circle id="Ellipse_175" data-name="Ellipse 175" cx="20.563" cy="20.563" r="20.563" transform="matrix(0.526, -0.85, 0.85, 0.526, 0, 47.644)" fill="#fff"/>
      <path id="Path_6564" data-name="Path 6564" d="M397.242,278.885a19.492,19.492,0,1,1,10.443-25.512A19.515,19.515,0,0,1,397.242,278.885Z" transform="translate(-361.44 -220.019)" fill="#fff"/>
      <g id="Group_1688" data-name="Group 1688" transform="translate(8.451 21.072)">
        <path id="Path_6565" data-name="Path 6565" d="M373.478,287.284l-3.219,1.349a1.04,1.04,0,1,0,.8,1.918l3.219-1.349a1.04,1.04,0,1,0-.8-1.918Z" transform="translate(-369.621 -261.907)" fill="#92b5f9"/>
        <path id="Path_6566" data-name="Path 6566" d="M416.641,303.855a1.04,1.04,0,0,0-.557,1.361l1.349,3.219a1.04,1.04,0,0,0,1.919-.8L418,304.412A1.042,1.042,0,0,0,416.641,303.855Z" transform="translate(-390.707 -269.44)" fill="#92b5f9"/>
        <path id="Path_6567" data-name="Path 6567" d="M436.43,260.9l-3.218,1.349a1.04,1.04,0,1,0,.8,1.918l3.218-1.349a1.04,1.04,0,1,0-.8-1.918Z" transform="translate(-398.24 -249.912)" fill="#92b5f9"/>
        <path id="Path_6568" data-name="Path 6568" d="M390.257,240.9a1.041,1.041,0,0,0-.557,1.361l1.349,3.218a1.04,1.04,0,1,0,1.918-.8l-1.349-3.219A1.041,1.041,0,0,0,390.257,240.9Z" transform="translate(-378.713 -240.821)" fill="#92b5f9"/>
      </g>
      <g id="Group_1689" data-name="Group 1689" transform="translate(27.186 7.71)">
        <path id="Rectangle_486" data-name="Rectangle 486" d="M1.116,0H4.194A1.115,1.115,0,0,1,5.309,1.115V4.8A1.115,1.115,0,0,1,4.194,5.91H1.116A1.116,1.116,0,0,1,0,4.795V1.116A1.116,1.116,0,0,1,1.116,0Z" transform="translate(0 5.296) rotate(-85.979)" fill="#92b5f9"/>
      </g>
      <g id="Group_1690" data-name="Group 1690" transform="translate(1.549 17.112)">
        <path id="Rectangle_487" data-name="Rectangle 487" d="M1.116,0H4.8A1.115,1.115,0,0,1,5.91,1.115V4.194A1.115,1.115,0,0,1,4.8,5.308H1.116A1.116,1.116,0,0,1,0,4.193V1.116A1.116,1.116,0,0,1,1.116,0Z" transform="matrix(0.649, -0.76, 0.76, 0.649, 0, 4.494)" fill="#92b5f9"/>
      </g>
      <g id="Group_1691" data-name="Group 1691" transform="translate(6.941)">
        <rect id="Rectangle_488" data-name="Rectangle 488" width="7.195" height="4.13" rx="1.086" transform="matrix(0.922, -0.387, 0.387, 0.922, 4.896, 9.895)" fill="#92b5f9"/>
        <path id="Path_6569" data-name="Path 6569" d="M375.346,216.639a6.467,6.467,0,1,1,3.766-1.576l.617,1.473a8,8,0,1,0-3.765,1.578Z" transform="translate(-366.852 -202.184)" fill="#92b5f9"/>
        <path id="Path_6570" data-name="Path 6570" d="M384.964,228.668q.97-.407,1.954-.73l-1.643-3.92-3.063,1.284,1.623,3.871Q384.391,228.908,384.964,228.668Z" transform="translate(-373.835 -212.11)" fill="#92b5f9"/>
      </g>
      <g id="Group_1692" data-name="Group 1692" transform="translate(26.368 25.346)">
        <path id="Path_6571" data-name="Path 6571" d="M406.119,274.77a1.9,1.9,0,1,1-2.482-1.016A1.9,1.9,0,0,1,406.119,274.77Z" transform="translate(-402.473 -260)" fill="#92b5f9"/>
        <path id="Path_6572" data-name="Path 6572" d="M407.335,248.658l-1.354,15.583a.714.714,0,0,1-1.422-.123C404.564,264.056,404.445,264.743,407.335,248.658Z" transform="translate(-403.42 -248.658)" fill="#92b5f9"/>
        <path id="Path_6573" data-name="Path 6573" d="M419.1,284.247l-13.978-7.02a.714.714,0,1,1,.641-1.275C405.817,275.98,405.223,275.615,419.1,284.247Z" transform="translate(-403.498 -261.031)" fill="#92b5f9"/>
        <path id="Path_6574" data-name="Path 6574" d="M406.019,276.139a.775.775,0,1,1-1.014-.415A.774.774,0,0,1,406.019,276.139Z" transform="translate(-403.408 -260.935)" fill="#92b5f9"/>
      </g>
    </g>
    <g id="Group_1695" data-name="Group 1695" transform="translate(450.923 324.708)">
      <g id="Group_1694" data-name="Group 1694" transform="translate(0 0)">
        <path id="Path_6575" data-name="Path 6575" d="M752.6,458.852a.76.76,0,0,0-.767-.231c-1.366.37-3.84-.182-5.063-.609l-1.332-6.6c.962-.868,3.028-2.336,4.43-2.526a.759.759,0,0,0,.617-.51l1.686-5.014a.758.758,0,0,0-.184-.779c-1-1-1.762-3.417-2-4.69l5.046-4.451c1.233.4,3.537,1.454,4.4,2.574a.762.762,0,0,0,.751.28l5.184-1.047a.758.758,0,0,0,.583-.549c.363-1.367,2.077-3.235,3.059-4.08l6.378,2.145c.272,1.267.51,3.79-.027,5.1a.759.759,0,0,0,.133.789l3.5,3.967a.76.76,0,0,0,.767.231c1.366-.37,3.84.182,5.063.609l1.331,6.6c-.961.869-3.028,2.336-4.43,2.526a.759.759,0,0,0-.617.51l-1.686,5.013a.758.758,0,0,0,.184.779c1,1,1.763,3.416,2,4.69l-5.046,4.451c-1.233-.4-3.537-1.454-4.4-2.574a.759.759,0,0,0-.75-.28l-5.185,1.047a.759.759,0,0,0-.583.549c-.363,1.368-2.077,3.235-3.059,4.081l-6.377-2.145c-.272-1.267-.51-3.79.027-5.1a.76.76,0,0,0-.133-.79Zm14.507-1.618a6.626,6.626,0,1,0-7.807-5.184A6.627,6.627,0,0,0,767.1,457.234Zm.841,4.166a10.876,10.876,0,1,0-12.814-8.508A10.876,10.876,0,0,0,767.946,461.4Z" transform="translate(-745.436 -430.625)" fill="#11abf2"/>
        <path id="Path_6576" data-name="Path 6576" d="M823.774,501.817a.6.6,0,0,1,.462-.435l4.1-.829a.6.6,0,0,1,.594.221,8.614,8.614,0,0,0,3.486,2.038l4-3.524a8.609,8.609,0,0,0-1.587-3.713.6.6,0,0,1-.146-.617l1.335-3.969a.6.6,0,0,1,.489-.4,8.609,8.609,0,0,0,3.507-2l-1.054-5.223a8.62,8.62,0,0,0-4.009-.482.6.6,0,0,1-.608-.183l-2.77-3.14a.6.6,0,0,1-.105-.626,8.609,8.609,0,0,0,.022-4.038l-5.05-1.7a8.609,8.609,0,0,0-2.423,3.231.6.6,0,0,1-.462.435l-4.1.829a.6.6,0,0,1-.594-.221,8.6,8.6,0,0,0-3.486-2.038l-4,3.524a8.614,8.614,0,0,0,1.587,3.713.6.6,0,0,1,.146.617l-1.335,3.969a.6.6,0,0,1-.489.4,8.613,8.613,0,0,0-3.508,2l1.055,5.222a8.612,8.612,0,0,0,4.009.483.6.6,0,0,1,.607.182l2.771,3.141a.6.6,0,0,1,.105.626,8.609,8.609,0,0,0-.021,4.038l5.049,1.7A8.614,8.614,0,0,0,823.774,501.817Zm1.414-6.3a6.528,6.528,0,1,1,5.106-7.691A6.528,6.528,0,0,1,825.189,495.52Z" transform="translate(-773.777 -449.978)" fill="#11abf2"/>
      </g>
    </g>
    <path id="Path_6577" data-name="Path 6577" d="M296.5,361.09l-4.562-1.72-4,2.783a.67.67,0,0,1-1.052-.581l.226-4.87-3.884-2.947a.67.67,0,0,1,.228-1.18l4.7-1.29,1.6-4.6a.67.67,0,0,1,1.193-.148l2.68,4.073,4.874.1a.67.67,0,0,1,.509,1.089L295.97,355.6l1.41,4.667A.67.67,0,0,1,296.5,361.09Z" transform="translate(-84.269 -67.55)" fill="#92b5f9"/>
    <path id="Path_6578" data-name="Path 6578" d="M301.455,307.841l-2.48-6.658-6.344,1.9-2.732-6.451-6.286,1.065L280.78,293.2l-2.275,1.435,3.79,6.01,5.957-1.01,2.842,6.711,6.239-1.866,2.247,6.033Z" transform="translate(-82.242 -43.443)" fill="#7c9af2"/>
    <path id="Path_6579" data-name="Path 6579" d="M787.716,373.4l-6.231-3.413-3.557,5.585-6.287-3.092-4.057,4.918-5.083-1.544-.781,2.573,6.8,2.066,3.845-4.661,6.54,3.216,3.5-5.493,5.647,3.093Z" transform="translate(-301.915 -78.351)" fill="#bed1f9"/>
    <path id="Path_6580" data-name="Path 6580" d="M506.015,221.817l-2.666,6.586,5.961,2.884-2.34,6.6,5.356,3.458-.943,5.228,2.646.477,1.261-6.992-5.076-3.277,2.434-6.87-5.862-2.836,2.416-5.968Z" transform="translate(-184.458 -10.67)" fill="#92b5f9"/>
    <path id="Path_6581" data-name="Path 6581" d="M783.6,524.674l-1.31-2.582-2.951.1-1.264-3-3.11,1.076-1.579-3.327-2.986.638-2.043-2.953,1.118-.773L771,516.063l3.151-.673,1.518,3.2,3.162-1.094,1.395,3.308,2.882-.1,1.215,2.393,1.879-.46.323,1.32Z" transform="translate(-304.932 -143.753)" fill="#11abf2"/>
    <path id="Path_6582" data-name="Path 6582" d="M692.385,299.038l-1.379-4.1,6.355-2.948-1.277-6.246,4.4-2.984-1.51-2.225-5.879,3.99,1.21,5.92-6.612,3.067,2.075,6.173Z" transform="translate(-268.261 -37.683)" fill="#1282bb"/>
    <g id="Group_1697" data-name="Group 1697" transform="translate(437.715 245.799)">
      <path id="Path_6583" data-name="Path 6583" d="M758.543,292.037c7.008,10.71-2.523,25.573-15,23.362a9.454,9.454,0,0,0-6.585,1.355l-6.9,4.254a3.982,3.982,0,0,1-5.49-1.168l-2.654-4.057a4.516,4.516,0,0,1,.906-5.837c6.24-5.344,8.9-6.861,9.734-11.343C735,285.494,751.533,281.325,758.543,292.037Z" transform="translate(-721.219 -285.942)" fill="#bed1f9"/>
      <g id="Group_1696" data-name="Group 1696" transform="translate(7.847 5.719)">
        <path id="Path_6584" data-name="Path 6584" d="M748.627,302.7a13.135,13.135,0,0,1-.327-1.887c-.318-3.744,2.575-5.038,4.1-4.073a2.757,2.757,0,0,1,.811,3.41,9.1,9.1,0,0,1-2.706,3.071,18.081,18.081,0,0,0,2.777,5.7c3.412-2.057,5.85-.932,6.009.929a3.035,3.035,0,0,1-1.821,2.929c-.69.3-2.477.714-4.592-1.626-5.76,4.062-13.278,10.065-13.3,10.083l-.954-1.326c.023-.018,7.5-5.982,13.237-10.038a19.63,19.63,0,0,1-2.748-5.428c-6.564,5.73-12.351,10.261-12.553,10.425l-.951-1.33C736.026,313.194,741.633,308.829,748.627,302.7Zm2.768-4.561c-.508-.194-1.86.367-1.316,3.287C751.6,300.087,752.061,299.5,751.394,298.135Zm2.937,12.068c.839.872,2.108,1.66,2.961.718C758.386,309.711,756.822,308.806,754.332,310.2Z" transform="translate(-735.607 -296.428)" fill="#fff"/>
      </g>
      <path id="Path_6585" data-name="Path 6585" d="M737.132,332.115c-.058.034-.119.063-.176.1l-6.9,4.254a3.982,3.982,0,0,1-5.49-1.168l-2.654-4.057a4.516,4.516,0,0,1,.906-5.837c2.776-2.377,4.841-4,6.354-5.457Z" transform="translate(-721.219 -301.402)" fill="#92b5f9"/>
    </g>
    <g id="Group_1701" data-name="Group 1701" transform="translate(127.636 379.583)">
      <g id="Group_1700" data-name="Group 1700" transform="translate(0)">
        <g id="Group_1698" data-name="Group 1698" transform="translate(9.183 42.055)">
          <path id="Path_6586" data-name="Path 6586" d="M176.549,664.267s-.224-1.1-.271-1.467c-.054-.434-.116-1.747-.116-1.747s0-4.585.337-4.557.778.814.878,1.1.243.6.342.887a.584.584,0,0,0,.752.344c.361-.1.209-1.313.074-1.721a47.288,47.288,0,0,0-2.419-4.8c-.21-.408,1.252-8.361,1.536-11.125h0c.6-4.511,1.443-9.118,1.509-9.6l8.034-17.757-5.363-5.476s-9.193,19.581-9.541,20.613c-.165.491-.746,11.055-.742,11.055.041,5.219.092,9.819.076,10.7,0,0-.757,2.63-1.338,4.277a15.1,15.1,0,0,0-.546,3.883,11.258,11.258,0,0,0-.142,3.816c.242,1.795.841-.028.841-.028s.154-3.412.423-3.357c.207.043.012,1.9.258,3.891.064.512.128,1.016.191,1.479.165,1.215.964,1.452,1,.151a12.158,12.158,0,0,0-.067-1.767,10.084,10.084,0,0,1,.035-1.66,13.257,13.257,0,0,1,.047-1.711c.054.029.2-.17.281.371.1.65.009,2.081.232,3.025.127.534.323,1.669.323,1.669a11.553,11.553,0,0,0,.63,1.8c.6-.026.6-1.426.327-2.129a8.16,8.16,0,0,0-.179-1.724s.057-2.516.416-2.518c.294,0,1.328,6.037,1.924,5.97C176.777,666.1,176.549,664.267,176.549,664.267Z" transform="translate(-169.513 -608.348)" fill="#fb9390"/>
        </g>
        <path id="Path_6587" data-name="Path 6587" d="M188.454,616.3a38.16,38.16,0,0,1-5.1-1.235c-2.358-.878-3.909-1.646-3.909-1.646s2.589-11.081,5.819-17.809c1.335-2.781,2.685-4.122,4.568-4.444.011,0,3.969,2.606,3.812,8.889C193.6,601.528,188.454,616.3,188.454,616.3Z" transform="translate(-164.844 -558.481)" fill="#e8605d"/>
        <g id="Group_1699" data-name="Group 1699">
          <path id="Path_6588" data-name="Path 6588" d="M214.764,705.523l4.321,39.756s-2.112,8.407-1.858,10.8,4.7,33.721,4.7,33.721l-.188,1.758,0,5.19h16.489a73.642,73.642,0,0,1-8.4-4.8,3.488,3.488,0,0,1-1.4-2.487c-1.307-9.657,1.279-41.87,1.279-41.87l2.038-41.93Z" transform="translate(-180.901 -610.47)" fill="#fb9390"/>
          <path id="Path_6589" data-name="Path 6589" d="M180.357,720.857c-.931.243-2.365,34.425-3.135,35.94-4.889,9.605-6.051,38.807-6.051,38.807l-1.421,4.158-1.522,5.1s4.882,1.337,7.442-.118l-.284-5.027-.26-4.6,12.335-36.381,6.749-37.109Z" transform="translate(-159.746 -617.441)" fill="#fb9390"/>
          <path id="Path_6590" data-name="Path 6590" d="M215.273,590.366c-1.99-2.8-10.2-10.91-11.111-10.894-2.659.048-11.386.051-13.092.944l.01,1.91a102.814,102.814,0,0,0,3.284,25.308c1.5,5.761,2.916,11.912,2.741,14.122l.042.041a11.841,11.841,0,0,0,17.63-.873h0a104.953,104.953,0,0,1,.691-11.709C216.583,600.464,220.216,597.32,215.273,590.366Z" transform="translate(-170.13 -553.166)" fill="#1282bb"/>
          <path id="Path_6591" data-name="Path 6591" d="M209.643,561.832s.23,5.7-.267,7.856-1.16,2.323,3.107,2.98c1.676.258,3.293.643,3.293.643s-.438-3.171-.5-4.51c-.109-2.2.493-9.013.493-9.013Z" transform="translate(-178.286 -544.218)" fill="#fb9390"/>
          <path id="Path_6592" data-name="Path 6592" d="M213.653,564.667a7.482,7.482,0,0,0,2.454.9c.145-2.689.418-5.775.418-5.775l-5.84,1.95A7.765,7.765,0,0,0,213.653,564.667Z" transform="translate(-179.048 -544.218)" fill="#ef7f7f"/>
          <path id="Path_6593" data-name="Path 6593" d="M208.752,534.113a7.461,7.461,0,0,0-3.784,3.546c-1.346,2.685-1.848,10.232,3.456,13.184,2.626,1.461,5.655,1.738,7.081.453,1.455-1.312,1.277-4.225,1.132-6.647C216.347,539.85,215.292,532.587,208.752,534.113Z" transform="translate(-176.04 -532.452)" fill="#fb9390"/>
          <path id="Path_6594" data-name="Path 6594" d="M203,550.082c.3,1.26-.1,2.476-.9,2.717s-1.687-.587-1.988-1.847.1-2.476.9-2.716S202.7,548.823,203,550.082Z" transform="translate(-174.195 -538.947)" fill="#f7a491"/>
          <path id="Path_6595" data-name="Path 6595" d="M175.35,865.411a7.9,7.9,0,0,1-5.636.065l-1.564,5.118s4.917,1.457,7.477,0Z" transform="translate(-159.71 -683.156)" fill="#fa7167"/>
          <path id="Path_6596" data-name="Path 6596" d="M185.274,758.081c0,.005,0,0,.005,0Z" transform="translate(-167.495 -634.363)" fill="#f47458"/>
          <path id="Path_6597" data-name="Path 6597" d="M227.065,869.733h17.142c.634-.059.789-.592.568-.921-.452-.677-2.452-1.173-4.7-2.252-3.943.428-12.216-2.374-12.839-3.316C226.878,865.13,226.713,869.652,227.065,869.733Z" transform="translate(-186.405 -682.171)" fill="#fa7167"/>
          <path id="Path_6598" data-name="Path 6598" d="M257.98,617.741c.333-.461,1.444-2.719,1.444-2.719s1.152-3.868.914-3.817a4.306,4.306,0,0,0-1.179,1.749c-.344.715-.72,1.968-1.076,2.586-.624,1.085-1.323,1.539-1.15,1.12.127-.305.554-.557.93-1.207.916-1.584,1.726-4.173,1.373-4.12-.31.046-1.2,1.831-2.177,3.218a10.142,10.142,0,0,1-2.405,1.844,3.3,3.3,0,0,1,.155-.849c.1-.3,1.458-2.109.926-2.336s-3.773,3.684-3.773,3.684l-1.331,2.268-.118.087h0s-16.167,6.338-16.709,6.167c-1.272-.4-5.616-13-5.616-13l-9.045,1.631c-.13-.07,9.509,18.744,11.307,19.667,1.578.81,18.384-7.945,21.54-9.818,4.347-1.673,6.045-3.663,6.75-4.682.379-.548,1.836-2.928,1.836-2.928s.313-3.3.075-3.327c-.8-.1-1.018,3.011-1.018,3.011s-1.079,1.467-1.266,1.66C257.9,618.108,257.98,617.741,257.98,617.741Z" transform="translate(-182.889 -567.592)" fill="#fb9390"/>
          <path id="Path_6599" data-name="Path 6599" d="M208.306,589.05c-1.235,5.232,5.35,16.9,5.35,16.9s9.38-4.556,11.029-6.519c0,0-6.47-10.677-6.871-11.375-.866-1.506-3.9-4.619-5.953-4.047C210.557,584.369,208.306,589.05,208.306,589.05Z" transform="translate(-177.896 -555.195)" fill="#11abf2"/>
          <path id="Path_6600" data-name="Path 6600" d="M184.577,552.191c.7-4.8,8.662-14.581,5.588-18.668-2.488-3.307-6.826-2.318-9.59-1.367-12.534,4.312-11.814,20.068-15.771,22.532-7.173,4.467-11.586,7.249-12.1,17.314-.614,11.936,9.524,18.033,21.716,15.112,6.555-1.57,8.293-3.715,10.921-9.905,1.185-2.791,3.575-11.495,2.921-15.747C187.674,557.654,184.012,556.058,184.577,552.191Z" transform="translate(-152.675 -531.239)" fill="#0b0754"/>
          <path id="Path_6601" data-name="Path 6601" d="M217.983,551.378c0,1.421-.516,2.573-1.152,2.573s-1.152-1.152-1.152-2.573.516-2.573,1.152-2.573S217.983,549.957,217.983,551.378Z" transform="translate(-181.317 -539.225)" fill="#fb9390"/>
          <path id="Path_6602" data-name="Path 6602" d="M219.866,708.632l.586-23.585A46.685,46.685,0,0,0,216.59,665.7l-4.458-10.228a26.985,26.985,0,0,1-5.4,1.312,52.6,52.6,0,0,1-12.275-.481,3.245,3.245,0,0,1-.056.417c-.744,3.474-4.887,11.217-6.632,21.8-1.981,12.015-2.722,29.984-2.474,31.393C204.24,710.779,208.755,711.462,219.866,708.632Z" transform="translate(-167.485 -587.718)" fill="#5cd5ff"/>
        </g>
      </g>
    </g>
    <g id="Group_1703" data-name="Group 1703" transform="translate(410.361 382.424)">
      <path id="Path_6603" data-name="Path 6603" d="M676.679,536.449l14.267,14.267s27.169,10.624,30.2,17.151-2.732,6.223-9.107,5.312-24.436-12.143-24.436-12.143l-16.544-19.124Z" transform="translate(-671.063 -536.449)" fill="#0e7aa5"/>
      <path id="Path_6604" data-name="Path 6604" d="M744.361,587.764l-3.529-1.252L734,589.7s-3.529,2.39-5.236,8.31,0,41.322,2.846,47.014S744.361,587.764,744.361,587.764Z" transform="translate(-696.985 -559.208)" fill="#bed1f9"/>
      <path id="Path_6605" data-name="Path 6605" d="M799.008,843.469s2.509,1.616,2.715,2.359,2.046,8.788,1.357,9.721-3.21.482-2.23,1.16c.74.513,5.509.905,8.557.083.89-.241.483-7.76.614-8.906.19-1.663,1.342-5.44.643-6.424-.341-.479-2.3-1.323-4.059-2.01a14.557,14.557,0,0,1-3.908-2.765Z" transform="translate(-729.228 -672.94)" fill="#fb9390"/>
      <path id="Path_6606" data-name="Path 6606" d="M807.365,841.641s-1.481,14.271-3.215,15.325c-.46.28-2.9.489-3.124,1.654-.005.03-.057,1.2.683,1.224l9.249-.028s.1-7.016.038-9.766c0,0,1.277-7.016.86-7.541S807.365,841.641,807.365,841.641Z" transform="translate(-730.144 -675.192)" fill="#0b0754"/>
      <path id="Path_6607" data-name="Path 6607" d="M865.381,843.469s2.509,1.616,2.715,2.359,2.046,8.788,1.357,9.721-3.21.482-2.231,1.16c.74.513,5.509.905,8.557.083.89-.241.483-7.76.614-8.906.19-1.663,1.342-5.44.643-6.424-.341-.479-2.3-1.323-4.059-2.01a14.575,14.575,0,0,1-3.908-2.765Z" transform="translate(-759.401 -672.94)" fill="#fb9390"/>
      <path id="Path_6608" data-name="Path 6608" d="M766.814,679.065s8.457,16.794,10.191,21.3l12.888,32.7,28.424,33.437s-2.081,5.373-5.227,6.812c0,0-34.271-27.673-37.09-32.031-4.3-6.643-23.863-47.348-23.863-47.348L748.5,686.11Z" transform="translate(-706.266 -601.283)" fill="#09587e"/>
      <path id="Path_6609" data-name="Path 6609" d="M740.474,674.52l.135,14.321s-6.118,46.777-4.933,49.556c2.892,6.779,34.682,29.748,34.682,29.748l4.326-7.437-22.843-25.5,8.651-24.816c2.421-5.765,7.57-16.9,7.439-23.155-.112-5.357-10.731-17.779-10.731-17.779Z" transform="translate(-700.367 -596.917)" fill="#096784"/>
      <path id="Path_6610" data-name="Path 6610" d="M751.336,657.728c8.422-1.913,15.239-4.89,15.938-7.239.316-1.063-4.381-11.747-7.837-26.014-1.128-4.658-.926-9.033-2.732-25.347-.384-3.461-1.817-10.714-7.175-12.584a8.036,8.036,0,0,0-2.932-.573c-.044.008-6.818.053-9.917,1.773-.765,1.038-3.615,6.716-4.374,22.2-.331,6.759-1.681,28.461-1.4,31.988q.062.784.157,1.519C732.271,652.818,742.124,659.82,751.336,657.728Z" transform="translate(-698.249 -558.961)" fill="#1282bb"/>
      <path id="Path_6611" data-name="Path 6611" d="M741.1,591.822c.006,0,.014,0,.024,0,3.433-.379,12.07-11.694,12.07-11.694l-.019-.031-5.329-8.439s-7.849,1.429-6.313,3.819,2.4,8.122,2.4,8.122c-.026.065-.061.145-.107.239A28.494,28.494,0,0,0,741.1,591.822Z" transform="translate(-702.903 -552.455)" fill="#fb9390"/>
      <path id="Path_6612" data-name="Path 6612" d="M741.731,575.476c-1.535-2.388,6.315-3.818,6.315-3.818l.443.7a4.575,4.575,0,0,1-.22,1.6,10.259,10.259,0,0,1-5,5.514A15.213,15.213,0,0,0,741.731,575.476Z" transform="translate(-703.099 -552.455)" fill="#ef7f7f"/>
      <g id="Group_1702" data-name="Group 1702" transform="translate(29.329 1.223)">
        <path id="Path_6613" data-name="Path 6613" d="M736.723,546.472c.17-.161,6.122,9.629,4.693,13.661s-6.239,7.247-9.095,5.809c-3.159-1.591-7.936-12.821-5.056-17.584S736.723,546.472,736.723,546.472Z" transform="translate(-725.538 -541.837)" fill="#fb9390"/>
        <path id="Path_6614" data-name="Path 6614" d="M727.4,538.932a19.99,19.99,0,0,1,13.285,2.76,9.168,9.168,0,0,1,2.524,11.994c-1.952,3.536-.777,6.14-.777,6.14s-6.089-.382-7.323-4.527c-.517-1.739.127-2.917-1.043-3.9-.9-.755-1.659-2.953-2.552-4.719,0,0-3.928-2.088-5.424-.369C725.582,546.9,722.909,539.9,727.4,538.932Z" transform="translate(-724.839 -538.691)" fill="#0b0754"/>
        <path id="Path_6615" data-name="Path 6615" d="M740.381,560.936c.533,1.279,1.567,2.065,2.311,1.756s.915-1.6.382-2.876-1.567-2.064-2.311-1.755S739.849,559.657,740.381,560.936Z" transform="translate(-731.764 -547.466)" fill="#fb9390"/>
      </g>
      <path id="Path_6616" data-name="Path 6616" d="M873.777,841.671s-1.521,14.254-3.255,15.309c-.46.28-2.9.489-3.124,1.654-.005.029-.076,1.233.683,1.214l9.24-.019s.106-7.016.047-9.766c0,0,1.277-7.016.86-7.541S873.777,841.671,873.777,841.671Z" transform="translate(-760.316 -675.205)" fill="#0b0754"/>
    </g>
    <g id="Group_1706" data-name="Group 1706" transform="translate(263.231 267.13)">
      <g id="Group_1705" data-name="Group 1705">
        <g id="Group_1704" data-name="Group 1704">
          <path id="Path_6617" data-name="Path 6617" d="M457.575,540.941c-7.343-15.362-9.361-38.286-1.357-56.47,13.492-30.692,50.617-43.218,47.883-78-.688-8.762-4.586-15.809-10.328-20.343-15.111-11.932-39.422-5.616-56.775,2.716a108.74,108.74,0,0,0-30.876,22.652L401.3,350.06c20.83-14.781,46.033-22.509,71.189-24.486,51.549-4.051,91.355,15.284,95.407,66.846,3.7,47.027-28.084,67.86-49.4,91.368-11.833,13.049-14.507,23.1-13.592,34.745.473,6.02,2.731,13.452,6.359,18.189Zm37.013,84.01c-50.107,3.938-55.909-63.377-5.293-67.355C539.153,553.678,544.5,621.029,494.588,624.951Z" transform="translate(-401.295 -325.053)" fill="#11abf2"/>
        </g>
      </g>
    </g>
    <path id="Path_6618" data-name="Path 6618" d="M656.271,532.961a10.811,10.811,0,0,0-.387-3.409,6.261,6.261,0,0,0-1.226-2.506,5.726,5.726,0,0,0-1.137-.994.569.569,0,0,0-.908.531c.115.316.707,1.406.821,1.721s.167,1.09-.1,1.347-4.412-4.5-4.67-4.918a16.474,16.474,0,0,1-.711-1.9s-.362-1.126-.8-.839c-.289.188-.607,1.115.225,2.943.727,1.6,1.733,2.872,1.619,2.966-.3.246-2.1-1.912-2.1-1.912a9.492,9.492,0,0,0-1.055-1.63c-.269-.8-.758-1.793-1.269-1.4a10.326,10.326,0,0,0,.245,1.775s.629,1.126.9,1.68c.473.978,1.548,2.164,1.918,2.8.307.53.009.407-.015.47a14.012,14.012,0,0,1-1.192-1.413,11.684,11.684,0,0,1-1.187-1.426,14.169,14.169,0,0,0-1.177-1.589c-.934-1.115-1.431-.357-.72.818.271.448.569.933.874,1.422,1.183,1.907,2.641,3.4,2.5,3.577-.184.233-2.692-2.64-2.692-2.64s-1.768-1.179-.717.555a17.847,17.847,0,0,0,2.6,3.352,16.859,16.859,0,0,0,3.157,3.107c1.63,1.038,4.274,2.6,4.274,2.6.3.367,1.078,1.558,2.148,3.242l3.952-4.756A30.906,30.906,0,0,1,656.271,532.961Z" transform="translate(-247.933 -147.431)" fill="#fb9390"/>
    <path id="Path_6619" data-name="Path 6619" d="M661.638,550.454l5.464-4.781,18.764,18.517s29.048,2.547,29.124,2.568l1.163.364c10.537,3.639,6.2,12.238,4.17,13.568-4.729,3.1-30.994,1.241-39.408-3.978C673.987,572.415,661.638,550.454,661.638,550.454Z" transform="translate(-256.418 -158.218)" fill="#1282bb"/>
    <g id="Group_1709" data-name="Group 1709" transform="translate(202.34 351.13)">
      <path id="Path_6620" data-name="Path 6620" d="M303.107,600.266a6.284,6.284,0,0,0,.6,1.542,58.33,58.33,0,0,0,5.7,8.092l3.08-7.407s-.5-2.327-1.373-5.651C308.134,597.671,305.3,598.151,303.107,600.266Z" transform="translate(-295.767 -532.61)" fill="#fb9390"/>
      <path id="Path_6621" data-name="Path 6621" d="M314.772,569.752s-17.183,7.9-17.738,7.746c-.358-.1-7.048-12.049-7.119-23.288-.033-5.191,5.018-11.435,10.653-10.2,2.838.622,2.794,1.464,6.991,7.974S314.772,569.752,314.772,569.752Z" transform="translate(-289.77 -508.52)" fill="#11abf2"/>
      <path id="Path_6622" data-name="Path 6622" d="M361.428,850.94s-.407,7.2-.41,7.217c-.149.914-.74,3.174-.74,4,0,3.123,13.894-2.651,10.78-4.035-.282-.125-1.758-1.073-1.851-2.136-.143-1.637-.506-4.95-.506-4.95Z" transform="translate(-321.757 -648.125)" fill="#fb9390"/>
      <path id="Path_6623" data-name="Path 6623" d="M370.614,863.956a50.141,50.141,0,0,1-4.933,1.194c-1.671.239-3.873-1.772-5.055-1.229-1.3.6-1.249,5.979-1.249,5.979s17.493,1.532,22.412-.053C383.737,869.22,377.283,866.181,370.614,863.956Z" transform="translate(-321.347 -653.984)" fill="#0b0754"/>
      <path id="Path_6624" data-name="Path 6624" d="M309.313,850.94s-.408,7.2-.411,7.217c-.149.914-.74,3.174-.74,4,0,3.123,13.894-2.651,10.78-4.035-.282-.125-2.2-1.78-2.289-2.843-.143-1.638-.067-4.244-.067-4.244Z" transform="translate(-298.065 -648.125)" fill="#fb9390"/>
      <path id="Path_6625" data-name="Path 6625" d="M318.413,863.956a50.1,50.1,0,0,1-4.933,1.194c-1.671.239-3.873-1.772-5.055-1.229-1.3.6-1.353,5.979-1.353,5.979s17.573,1.786,22.515-.053C331.507,869.133,325.082,866.181,318.413,863.956Z" transform="translate(-297.569 -653.984)" fill="#0b0754"/>
      <g id="Group_1707" data-name="Group 1707" transform="translate(15.494 15.101)">
        <path id="Path_6626" data-name="Path 6626" d="M318.058,563.3l12.237-18.3c.051-.16.163-.488.333-.989.616-1.816,1.9-5.593,3.015-9.351l.012-.04c.351-1.314,1.1-3.605,1.815-5.822.8-2.465,1.793-5.521,1.827-6.043-.031-.089-.088-.249-.165-.461a44.661,44.661,0,0,1-1.27-5.49c-.136-.82-.273-2.812.64-2.812,1.435,0,.752,1.99,1.413,3.233a33.039,33.039,0,0,0,.995-4.146l.24-3.89c.046-.293-.246-2.439.761-2.439l.048,0c.9.07.884,2.352,1.26,6.21.119-.444.238-.98.327-1.472a15.006,15.006,0,0,1,.307-2.036c-.182-1.075-.076-2.771,1-2.611.538.08.494,2.447.494,2.447-.006.325-.038,2.827-.021,3.322.111-.839.54-4.421,1.383-4.421.7,0,.754.964.739,1.726-.008.452-.447,4.331-.471,4.782.328-.589.718-4.007,1.044-4.007,1.361,0,.869,4.861.369,6.127a5.994,5.994,0,0,0-.155.678,12.5,12.5,0,0,1-1.167,3.617c-.855,1.56-2.033,4.041-2.213,4.421-.132.775-.541,3.562-1.056,7.067-.22,1.5-.462,3.145-.714,4.848l-.013,0c-.046.369-.3,1.541-1.269,5.939-1.325,6.018-1.462,6.279-1.521,6.39-.575,1.087-13.769,20.209-14.331,21.023l-.331.48Z" transform="translate(-318.058 -506.758)" fill="#fb9390"/>
        <path id="Path_6627" data-name="Path 6627" d="M357.488,529.852s-.993-2.711-2.761-2.716a1.926,1.926,0,0,1,1.835.336A3.884,3.884,0,0,1,357.488,529.852Z" transform="translate(-334.728 -515.976)" fill="#ef7f7f"/>
      </g>
      <g id="Group_1708" data-name="Group 1708">
        <path id="Path_6628" data-name="Path 6628" d="M311.323,522.077l-1.575,10.633s6,5.144,9.5,4.059c2.936-.911.923-5.007.923-5.007s-1.564-5.676-1.084-8.651S311.323,522.077,311.323,522.077Z" transform="translate(-298.786 -498.338)" fill="#fb9390"/>
        <path id="Path_6629" data-name="Path 6629" d="M313.515,525.293a23.332,23.332,0,0,0,6.793,2.044,15.047,15.047,0,0,1-.16-4.225c.221-1.373-1.416-1.7-3.242-1.65-2.391.219-4.522.617-4.522.617l-.3,2.044A5,5,0,0,0,313.515,525.293Z" transform="translate(-299.847 -498.339)" fill="#ef7f7f"/>
        <path id="Path_6630" data-name="Path 6630" d="M298.734,495.346c-.248,0,2.372,11.879,6.428,13.922s10.1.978,11.238-2.221c1.255-3.539-3.323-15.657-9.027-17.2S298.734,495.346,298.734,495.346Z" transform="translate(-293.771 -483.871)" fill="#fb9390"/>
        <path id="Path_6631" data-name="Path 6631" d="M299.3,479.631a13.411,13.411,0,0,0-5.226,6.162c-1.521.77-3.36,2.436-4.243,6.923-1.086,5.518,2.774,9.771,6.868,11.05s4.784,4.17,4.784,4.17l.405-3.11a12.542,12.542,0,0,0-2.28-4.064c-1.369-1.355.648-3.331.826-4.942.136-1.241-.719-3.65-.534-5.685,0,0,2.274-3.679,4.516-4.587C308.24,484,303.46,477.073,299.3,479.631Z" transform="translate(-289.649 -479.069)" fill="#0b0754"/>
        <path id="Path_6632" data-name="Path 6632" d="M307.864,511.916c.53,1.372.314,2.734-.484,3.042s-1.873-.554-2.4-1.926-.313-2.733.484-3.042S307.333,510.544,307.864,511.916Z" transform="translate(-296.485 -493.098)" fill="#fb9390"/>
      </g>
      <path id="Path_6633" data-name="Path 6633" d="M338.209,601.539l23.6-4.107s-2.686-7.216-3.645-7.216-17.848,7.869-17.848,7.869l-1.344,2.879Z" transform="translate(-311.725 -529.598)" fill="#fb9390"/>
      <path id="Path_6634" data-name="Path 6634" d="M312.688,641.687s-2.354,12.149-1.4,21.361,1.035,41.935,1.035,41.935l-3.662,52.359,8.689.2s10.3-52.334,10.11-50.99,3.454-36.848,3.454-36.848l-12.282-29.171Z" transform="translate(-298.294 -552.473)" fill="#096784"/>
      <path id="Path_6635" data-name="Path 6635" d="M319.778,638.232s-1.535,10.939.384,15.737,16.46,51.874,16.652,55.712,5.028,46.263,5.028,46.263l10.1-.3,2.185-47.168-4.576-59.283L345.111,634.2Z" transform="translate(-303.082 -549.594)" fill="#096784"/>
      <path id="Path_6636" data-name="Path 6636" d="M309.748,539.224s2.491,1.744,4.815,1.542,5.609-2.49,5.609-2.49l-.457-1.652s-6.011-.934-6.163-.833S309.748,539.224,309.748,539.224Z" transform="translate(-298.786 -504.852)" fill="#fb9390"/>
      <path id="Path_6637" data-name="Path 6637" d="M358.434,582.133s8.929,8.992,12.959,7.457,5.7-6.784-4.136-14.462C358.456,568.256,358.434,582.133,358.434,582.133Z" transform="translate(-320.919 -521.87)" fill="#fb9390"/>
      <path id="Path_6638" data-name="Path 6638" d="M335.4,578.151c-1.326-7.7-10.939-31.666-11.707-36.08-.374-2.147-5.558-2.194-10.5-1.914-5.217.3-10.4,1-10.4,1s-4.618.809-6.65,2.841-2.572,7.651.349,18.319c2.306,8.42,5.164,13.045,6.579,19.178.287,2.057.532,4.087.857,6.458.52,9.171-.006,21.287-.006,21.287s25.141,5.566,34.545-2.879C338.475,606.363,336.764,586.041,335.4,578.151Z" transform="translate(-291.84 -506.785)" fill="#1282bb"/>
      <path id="Path_6639" data-name="Path 6639" d="M357.834,561.849s-9.865,8.691-10.441,8.691c-.37,0-14.078-10.761-17.241-19.6-1.749-4.887,1.92-10.355,6.111-10.337,2.9.013,4.2.812,9.953,5.993S357.834,561.849,357.834,561.849Z" transform="translate(-307.859 -507.042)" fill="#11abf2"/>
    </g>
    <g id="Group_1710" data-name="Group 1710" transform="translate(359.653 206.026)">
      <path id="Path_6640" data-name="Path 6640" d="M618.26,243.13,599.7,255.688c-1.884,1.275-4.612.533-6.093-1.656l-14.588-21.563c-1.481-2.189-1.154-5,.73-6.272l18.561-12.557c1.885-1.275,4.613-.534,6.094,1.655l14.588,21.563C620.471,239.047,620.144,241.856,618.26,243.13Z" transform="translate(-578.088 -213.016)" fill="#11abf2"/>
      <path id="Path_6641" data-name="Path 6641" d="M615.48,235.293c3.776,5.581,2.942,12.74-1.862,15.99s-11.76,1.361-15.535-4.221-2.942-12.74,1.862-15.99S611.7,229.712,615.48,235.293Z" transform="translate(-586.102 -220.501)" fill="#fff"/>
      <path id="Path_6642" data-name="Path 6642" d="M608.746,241.662l4.88,5.542a.971.971,0,0,1,.035,1.323.874.874,0,0,1-1.259-.147,1.219,1.219,0,0,1-.148-.212Z" transform="translate(-592.026 -226.039)" fill="#11abf2"/>
      <path id="Path_6643" data-name="Path 6643" d="M615.428,248.794l6.556-3.554-5.595,4.941a.764.764,0,0,1-1.087-.169.828.828,0,0,1,.009-1.137A.67.67,0,0,1,615.428,248.794Z" transform="translate(-594.906 -227.665)" fill="#11abf2"/>
    </g>
    <rect id="Rectangle_489" data-name="Rectangle 489" width="71.594" height="37.242" rx="18.621" transform="translate(134.714 313.553)" fill="#11abf2"/>
    <path id="Path_6644" data-name="Path 6644" d="M281.346,445.489l17.633,7.9-11.805-16.524Z" transform="translate(-83.534 -108.755)" fill="#11abf2"/>
    <g id="Group_1711" data-name="Group 1711" transform="translate(152.377 328.224)">
      <path id="Path_6645" data-name="Path 6645" d="M204.216,439.816a3.11,3.11,0,1,1-3.088-2.745A2.932,2.932,0,0,1,204.216,439.816Z" transform="translate(-198.039 -437.071)" fill="#fff"/>
      <path id="Path_6646" data-name="Path 6646" d="M230.562,439.816a3.11,3.11,0,1,1-3.088-2.745A2.932,2.932,0,0,1,230.562,439.816Z" transform="translate(-210.016 -437.071)" fill="#fff"/>
      <path id="Path_6647" data-name="Path 6647" d="M256.908,439.816a3.11,3.11,0,1,1-3.088-2.745A2.932,2.932,0,0,1,256.908,439.816Z" transform="translate(-221.993 -437.071)" fill="#fff"/>
    </g>
    <g id="Group_1712" data-name="Group 1712" transform="translate(350.796 197.64)">
      <path id="Path_6648" data-name="Path 6648" d="M564.756,204.968l-2.906-6.2,2.414-1.133,1.647,3.512,4.025-2.434L571.316,201Z" transform="translate(-561.849 -197.64)" fill="#bed1f9"/>
    </g>
    <g id="Group_1714" data-name="Group 1714" transform="translate(181.876 287.175)">
      <g id="Group_1713" data-name="Group 1713">
        <path id="Path_6649" data-name="Path 6649" d="M259.468,368.717l-6.445,2.3-.9-2.512,3.654-1.3-2.037-4.24,2.4-1.155Z" transform="translate(-252.127 -361.806)" fill="#1282bb"/>
      </g>
    </g>
    <g id="Group_1715" data-name="Group 1715" transform="translate(456.259 230.37)">
      <path id="Path_6650" data-name="Path 6650" d="M755.275,258.961q.718,2.289,1.436,4.579c.375,1.194.653,3.133,1.818,3.81a.675.675,0,0,0,.916-.24c.578-1.272-.253-2.9-.651-4.145l-1.462-4.572c-.417-1.3-2.471-.749-2.058.568Z" transform="translate(-755.22 -257.651)" fill="#92b5f9"/>
    </g>
    <g id="Group_1716" data-name="Group 1716" transform="translate(470.087 229.289)">
      <path id="Path_6651" data-name="Path 6651" d="M782.955,256.407c-2.472,8.438-2.5,8.184-2.314,9.045a.914.914,0,0,0,1.515.4c.578-.6.434-.421,2.822-8.887a1.05,1.05,0,0,0-2.023-.558Z" transform="translate(-780.574 -255.669)" fill="#92b5f9"/>
    </g>
    <g id="Group_1717" data-name="Group 1717" transform="translate(480.293 243.201)">
      <path id="Path_6652" data-name="Path 6652" d="M800.891,286.783l4.37-2.1c1.3-.621,2.966-1.115,3.853-2.293.39-.518-.146-1.2-.7-1.216-1.439-.043-2.972,1.06-4.23,1.671l-4.358,2.115c-1.221.593-.153,2.4,1.063,1.82Z" transform="translate(-799.288 -281.177)" fill="#92b5f9"/>
    </g>
    <g id="Group_1718" data-name="Group 1718" transform="translate(476.899 272.399)">
      <path id="Path_6653" data-name="Path 6653" d="M793.291,336.468a69.536,69.536,0,0,0,4.683,5.662c.91.948,2.235-.443,1.421-1.421-1.57-1.883-3.181-3.718-4.7-5.649-.792-1.01-2.182.41-1.408,1.408Z" transform="translate(-793.064 -334.714)" fill="#92b5f9"/>
    </g>
    <g id="Group_1719" data-name="Group 1719" transform="translate(482.111 262.368)">
      <path id="Path_6654" data-name="Path 6654" d="M803.132,318.265c1.348.592,2.714,1.14,4.085,1.677,1.252.49,2.738,1.366,4.094,1.173.719-.1.8-1.062.4-1.507-.507-.558-.778-.515-3.757-1.662-1.343-.518-2.677-1.062-4.026-1.566-1.084-.4-1.866,1.415-.795,1.885Z" transform="translate(-802.621 -316.322)" fill="#92b5f9"/>
    </g>
  </g>
</svg>
